<?xml version="1.0" encoding="utf-8" standalone="no"?>
<!DOCTYPE svg PUBLIC "-//W3C//DTD SVG 1.1//EN"
  "http://www.w3.org/Graphics/SVG/1.1/DTD/svg11.dtd">
<!-- Created with matplotlib (https://matplotlib.org/) -->
<svg height="345.6pt" version="1.1" viewBox="0 0 460.8 345.6" width="460.8pt" xmlns="http://www.w3.org/2000/svg" xmlns:xlink="http://www.w3.org/1999/xlink">
 <defs>
  <style type="text/css">
*{stroke-linecap:butt;stroke-linejoin:round;}
  </style>
 </defs>
 <g id="figure_1">
  <g id="patch_1">
   <path d="M 0 345.6 
L 460.8 345.6 
L 460.8 0 
L 0 0 
z
" style="fill:#ffffff;"/>
  </g>
  <g id="axes_1">
   <g id="patch_2">
    <path d="M 57.6 307.584 
L 414.72 307.584 
L 414.72 41.472 
L 57.6 41.472 
z
" style="fill:#ffffff;"/>
   </g>
   <g id="PathCollection_1">
    <path clip-path="url(#p1f9122787b)" d="M 57.6 41.472 
L 57.6 307.584 
L 414.72 307.584 
L 414.72 174.528 
L 414.72 41.472 
M 226.206574 113.575135 
L 233.049845 113.074433 
L 267.96428 114.690015 
L 291.630042 129.874213 
L 294.32208 130.681935 
L 296.084996 133.193872 
L 316.462058 150.828681 
L 318.630155 176.845567 
L 317.958217 181.944908 
L 314.793779 208.250926 
L 296.170173 215.957937 
L 294.805497 218.228354 
L 293.759895 218.522303 
L 242.773333 236.648776 
L 233.518279 235.143746 
L 208.314031 233.508591 
L 185.514874 221.084404 
L 177.99792 218.374065 
L 177.31896 217.86813 
L 173.681709 212.266787 
L 157.008558 195.277738 
L 154.814194 176.496508 
L 152.794457 169.6 
L 177.120026 131.606788 
L 177.514503 130.827646 
L 180.561384 129.810742 
L 197.749583 116.338044 
" style="fill:#481b6d;"/>
   </g>
   <g id="PathCollection_2">
    <path clip-path="url(#p1f9122787b)" d="M 197.749583 116.338044 
L 180.561384 129.810742 
L 177.514503 130.827646 
L 177.120026 131.606788 
L 152.794457 169.6 
L 154.814194 176.496508 
L 157.008558 195.277738 
L 173.681709 212.266787 
L 177.31896 217.86813 
L 177.99792 218.374065 
L 185.514874 221.084404 
L 208.314031 233.508591 
L 233.518279 235.143746 
L 242.773333 236.648776 
L 293.759895 218.522303 
L 294.805497 218.228354 
L 296.170173 215.957937 
L 314.793779 208.250926 
L 317.958217 181.944908 
L 318.630155 176.845567 
L 316.462058 150.828681 
L 296.084996 133.193872 
L 294.32208 130.681935 
L 291.630042 129.874213 
L 267.96428 114.690015 
L 233.049845 113.074433 
L 226.206574 113.575135 
M 214.033969 128.472538 
L 251.138295 127.160603 
L 251.791201 127.263415 
L 280.432414 135.856956 
L 299.188485 162.582036 
L 299.651205 162.996719 
L 299.726636 163.366754 
L 297.966031 191.015462 
L 297.381401 192.395582 
L 285.86053 211.562911 
L 274.119841 214.863551 
L 242.773333 226.007696 
L 224.064256 222.96528 
L 214.934472 221.50891 
L 191.887586 213.199044 
L 184.263793 207.518089 
L 173.112026 190.344441 
L 171.157589 183.54128 
L 167.074694 169.6 
L 182.03004 146.241796 
L 186.45947 137.493089 
L 212.18186 128.908182 
" style="fill:#3f4788;"/>
   </g>
   <g id="PathCollection_3">
    <path clip-path="url(#p1f9122787b)" d="M 212.18186 128.908182 
L 186.45947 137.493089 
L 182.03004 146.241796 
L 167.074694 169.6 
L 171.157589 183.54128 
L 173.112026 190.344441 
L 184.263793 207.518089 
L 191.887586 213.199044 
L 214.934472 221.50891 
L 224.064256 222.96528 
L 242.773333 226.007696 
L 274.119841 214.863551 
L 285.86053 211.562911 
L 297.381401 192.395582 
L 297.966031 191.015462 
L 299.726636 163.366754 
L 299.651205 162.996719 
L 299.188485 162.582036 
L 280.432414 135.856956 
L 251.791201 127.263415 
L 251.138295 127.160603 
L 214.033969 128.472538 
M 223.7534 135.715082 
L 237.61013 135.225135 
L 257.76901 138.399495 
L 266.542747 141.031976 
L 272.288344 149.21874 
L 286.575128 162.02234 
L 288.904104 173.447419 
L 288.2466 183.772918 
L 284.985262 191.47187 
L 276.915563 204.897468 
L 254.479788 211.204799 
L 242.773333 215.366616 
L 235.786368 214.230416 
L 212.837265 210.569606 
L 205.777253 208.024024 
L 191.208626 197.168047 
L 187.792476 191.907199 
L 182.879701 174.806416 
L 181.354931 169.6 
L 186.940053 160.876803 
L 195.404437 144.158532 
L 213.421474 138.145304 
" style="fill:#2e6e8e;"/>
   </g>
   <g id="PathCollection_4">
    <path clip-path="url(#p1f9122787b)" d="M 213.421474 138.145304 
L 195.404437 144.158532 
L 186.940053 160.876803 
L 181.354931 169.6 
L 182.879701 174.806416 
L 187.792476 191.907199 
L 191.208626 197.168047 
L 205.777253 208.024024 
L 212.837265 210.569606 
L 235.786368 214.230416 
L 242.773333 215.366616 
L 254.479788 211.204799 
L 276.915563 204.897468 
L 284.985262 191.47187 
L 288.2466 183.772918 
L 288.904104 173.447419 
L 286.575128 162.02234 
L 272.288344 149.21874 
L 266.542747 141.031976 
L 257.76901 138.399495 
L 237.61013 135.225135 
L 223.7534 135.715082 
M 200.76564 191.630101 
L 196.000192 174.170465 
L 195.378567 169.6 
L 196.000192 167.314767 
L 204.349404 150.823975 
L 214.661088 147.382427 
L 226.479904 144.602465 
L 229.546667 144.139255 
L 235.680192 144.602465 
L 259.110872 148.153493 
L 273.499051 161.047962 
L 276.319808 174.885535 
L 276.941433 179.456 
L 276.319808 181.741233 
L 272.589124 190.548157 
L 267.970596 198.232025 
L 245.840096 204.453535 
L 242.773333 204.916745 
L 236.639808 204.453535 
L 213.209128 200.902507 
" style="fill:#21918c;"/>
   </g>
   <g id="PathCollection_5">
    <path clip-path="url(#p1f9122787b)" d="M 213.209128 200.902507 
L 236.639808 204.453535 
L 242.773333 204.916745 
L 245.840096 204.453535 
L 267.970596 198.232025 
L 272.589124 190.548157 
L 276.319808 181.741233 
L 276.941433 179.456 
L 276.319808 174.885535 
L 273.499051 161.047962 
L 259.110872 148.153493 
L 235.680192 144.602465 
L 229.546667 144.139255 
L 226.479904 144.602465 
L 214.661088 147.382427 
L 204.349404 150.823975 
L 196.000192 167.314767 
L 195.378567 169.6 
L 196.000192 174.170465 
L 200.76564 191.630101 
M 212.388556 189.897912 
L 211.184065 185.4849 
L 209.023575 169.6 
L 211.184065 161.65755 
L 213.294371 157.489418 
L 215.900701 156.619549 
L 218.887968 155.9169 
L 229.546667 154.306987 
L 250.864065 155.9169 
L 256.786289 156.81444 
L 260.422975 160.073583 
L 261.135935 163.5711 
L 263.296425 179.456 
L 261.135935 187.39845 
L 260.192986 189.624445 
L 259.025629 191.566582 
L 253.432032 193.1391 
L 242.773333 194.749013 
L 221.455935 193.1391 
L 215.533711 192.24156 
" style="fill:#2db27d;"/>
   </g>
   <g id="PathCollection_6">
    <path clip-path="url(#p1f9122787b)" d="M 215.533711 192.24156 
L 221.455935 193.1391 
L 242.773333 194.749013 
L 253.432032 193.1391 
L 259.025629 191.566582 
L 260.192986 189.624445 
L 261.135935 187.39845 
L 263.296425 179.456 
L 261.135935 163.5711 
L 260.422975 160.073583 
L 256.786289 156.81444 
L 250.864065 155.9169 
L 229.546667 154.306987 
L 218.887968 155.9169 
L 215.900701 156.619549 
L 213.294371 157.489418 
L 211.184065 161.65755 
L 209.023575 169.6 
L 211.184065 185.4849 
L 212.388556 189.897912 
M 223.827785 178.122978 
L 222.668584 169.6 
L 223.827785 165.338511 
L 229.546667 164.474719 
L 240.984429 165.338511 
L 248.492215 170.933022 
L 249.651416 179.456 
L 248.492215 183.717489 
L 242.773333 184.581281 
L 231.335571 183.717489 
" style="fill:#73d056;"/>
   </g>
   <g id="PathCollection_7">
    <path clip-path="url(#p1f9122787b)" d="M 231.335571 183.717489 
L 242.773333 184.581281 
L 248.492215 183.717489 
L 249.651416 179.456 
L 248.492215 170.933022 
L 240.984429 165.338511 
L 229.546667 164.474719 
L 223.827785 165.338511 
L 222.668584 169.6 
L 223.827785 178.122978 
" style="fill:#d0e11c;"/>
   </g>
   <g id="line2d_1">
    <path clip-path="url(#p1f9122787b)" d="M 57.6 307.584 
L 57.6 41.472 
M 414.72 307.584 
L 57.6 307.584 
M 414.72 41.472 
L 57.6 41.472 
M 216.32 71.04 
L 57.6 41.472 
M 216.32 71.04 
L 414.72 41.472 
M 97.28 159.744 
L 57.6 41.472 
M 97.28 159.744 
L 57.6 307.584 
M 256 278.016 
L 57.6 307.584 
M 256 278.016 
L 414.72 307.584 
M 110.506667 228.736 
L 57.6 307.584 
M 110.506667 228.736 
L 97.28 159.744 
M 163.413333 268.16 
L 57.6 307.584 
M 163.413333 268.16 
L 256 278.016 
M 163.413333 268.16 
L 110.506667 228.736 
M 308.906667 80.896 
L 414.72 41.472 
M 308.906667 80.896 
L 216.32 71.04 
M 414.72 174.528 
L 414.72 307.584 
M 414.72 174.528 
L 414.72 41.472 
M 414.72 174.528 
L 375.04 189.312 
M 110.506667 110.464 
L 57.6 41.472 
M 110.506667 110.464 
L 97.28 159.744 
M 256 189.312 
L 295.68 218.88 
M 150.186667 80.896 
L 57.6 41.472 
M 150.186667 80.896 
L 216.32 71.04 
M 150.186667 80.896 
L 110.506667 110.464 
M 216.32 159.744 
L 176.64 130.176 
M 322.133333 268.16 
L 414.72 307.584 
M 322.133333 268.16 
L 256 278.016 
M 361.813333 120.32 
L 414.72 41.472 
M 361.813333 120.32 
L 375.04 189.312 
M 361.813333 120.32 
L 308.906667 80.896 
M 361.813333 120.32 
L 414.72 174.528 
M 242.773333 209.024 
L 295.68 218.88 
M 242.773333 209.024 
L 256 189.312 
M 242.773333 238.592 
L 295.68 218.88 
M 242.773333 238.592 
L 256 278.016 
M 242.773333 238.592 
L 242.773333 209.024 
M 282.453333 179.456 
L 256 189.312 
M 229.546667 140.032 
L 216.32 159.744 
M 189.866667 169.6 
L 176.64 130.176 
M 189.866667 169.6 
L 216.32 159.744 
M 322.133333 179.456 
L 375.04 189.312 
M 229.546667 110.464 
L 216.32 71.04 
M 150.186667 169.6 
L 176.64 130.176 
M 150.186667 169.6 
L 97.28 159.744 
M 150.186667 169.6 
L 189.866667 169.6 
M 216.32 189.312 
L 242.773333 209.024 
M 216.32 189.312 
L 189.866667 169.6 
M 256 159.744 
L 282.453333 179.456 
M 256 159.744 
L 229.546667 140.032 
M 286.862222 241.877333 
L 295.68 218.88 
M 286.862222 241.877333 
L 256 278.016 
M 286.862222 241.877333 
L 322.133333 268.16 
M 286.862222 241.877333 
L 242.773333 238.592 
M 185.457778 107.178667 
L 176.64 130.176 
M 185.457778 107.178667 
L 216.32 71.04 
M 185.457778 107.178667 
L 150.186667 80.896 
M 185.457778 107.178667 
L 229.546667 110.464 
M 145.777778 136.746667 
L 176.64 130.176 
M 145.777778 136.746667 
L 97.28 159.744 
M 145.777778 136.746667 
L 110.506667 110.464 
M 145.777778 136.746667 
L 150.186667 169.6 
M 330.951111 225.450667 
L 295.68 218.88 
M 330.951111 225.450667 
L 375.04 189.312 
M 330.951111 225.450667 
L 322.133333 268.16 
M 330.951111 225.450667 
L 322.133333 179.456 
M 330.951111 225.450667 
L 286.862222 241.877333 
M 145.777778 107.178667 
L 176.64 130.176 
M 145.777778 107.178667 
L 110.506667 110.464 
M 145.777778 107.178667 
L 150.186667 80.896 
M 145.777778 107.178667 
L 185.457778 107.178667 
M 145.777778 107.178667 
L 145.777778 136.746667 
M 145.777778 205.738667 
L 97.28 159.744 
M 145.777778 205.738667 
L 176.64 218.88 
M 145.777778 205.738667 
L 110.506667 228.736 
M 145.777778 205.738667 
L 150.186667 169.6 
M 194.275556 241.877333 
L 176.64 218.88 
M 194.275556 241.877333 
L 256 278.016 
M 194.275556 241.877333 
L 163.413333 268.16 
M 194.275556 241.877333 
L 242.773333 238.592 
M 150.186667 238.592 
L 176.64 218.88 
M 150.186667 238.592 
L 110.506667 228.736 
M 150.186667 238.592 
L 163.413333 268.16 
M 150.186667 238.592 
L 145.777778 205.738667 
M 150.186667 238.592 
L 194.275556 241.877333 
M 211.911111 126.890667 
L 176.64 130.176 
M 211.911111 126.890667 
L 216.32 159.744 
M 211.911111 126.890667 
L 229.546667 140.032 
M 211.911111 126.890667 
L 229.546667 110.464 
M 211.911111 126.890667 
L 185.457778 107.178667 
M 300.088889 192.597333 
L 295.68 218.88 
M 300.088889 192.597333 
L 256 189.312 
M 300.088889 192.597333 
L 282.453333 179.456 
M 300.088889 192.597333 
L 322.133333 179.456 
M 300.088889 192.597333 
L 330.951111 225.450667 
M 278.044444 107.178667 
L 216.32 71.04 
M 278.044444 107.178667 
L 295.68 130.176 
M 278.044444 107.178667 
L 308.906667 80.896 
M 278.044444 107.178667 
L 229.546667 110.464 
M 326.542222 143.317333 
L 295.68 130.176 
M 326.542222 143.317333 
L 375.04 189.312 
M 326.542222 143.317333 
L 361.813333 120.32 
M 326.542222 143.317333 
L 322.133333 179.456 
M 229.546667 169.6 
L 216.32 159.744 
M 229.546667 169.6 
L 229.546667 140.032 
M 229.546667 169.6 
L 189.866667 169.6 
M 229.546667 169.6 
L 216.32 189.312 
M 229.546667 169.6 
L 256 159.744 
M 242.773333 179.456 
L 256 189.312 
M 242.773333 179.456 
L 242.773333 209.024 
M 242.773333 179.456 
L 282.453333 179.456 
M 242.773333 179.456 
L 216.32 189.312 
M 242.773333 179.456 
L 256 159.744 
M 242.773333 179.456 
L 229.546667 169.6 
M 322.133333 110.464 
L 295.68 130.176 
M 322.133333 110.464 
L 308.906667 80.896 
M 322.133333 110.464 
L 361.813333 120.32 
M 322.133333 110.464 
L 278.044444 107.178667 
M 322.133333 110.464 
L 326.542222 143.317333 
M 251.591111 126.890667 
L 295.68 130.176 
M 251.591111 126.890667 
L 229.546667 140.032 
M 251.591111 126.890667 
L 229.546667 110.464 
M 251.591111 126.890667 
L 211.911111 126.890667 
M 251.591111 126.890667 
L 278.044444 107.178667 
M 300.088889 163.029333 
L 295.68 130.176 
M 300.088889 163.029333 
L 282.453333 179.456 
M 300.088889 163.029333 
L 322.133333 179.456 
M 300.088889 163.029333 
L 256 159.744 
M 300.088889 163.029333 
L 300.088889 192.597333 
M 300.088889 163.029333 
L 326.542222 143.317333 
M 194.275556 192.597333 
L 176.64 218.88 
M 194.275556 192.597333 
L 189.866667 169.6 
M 194.275556 192.597333 
L 216.32 189.312 
M 211.911111 205.738667 
L 176.64 218.88 
M 211.911111 205.738667 
L 242.773333 209.024 
M 211.911111 205.738667 
L 216.32 189.312 
M 211.911111 205.738667 
L 194.275556 192.597333 
M 260.408889 143.317333 
L 295.68 130.176 
M 260.408889 143.317333 
L 229.546667 140.032 
M 260.408889 143.317333 
L 256 159.744 
M 260.408889 143.317333 
L 251.591111 126.890667 
M 260.408889 143.317333 
L 300.088889 163.029333 
M 373.57037 240.782222 
L 414.72 307.584 
M 373.57037 240.782222 
L 375.04 189.312 
M 373.57037 240.782222 
L 414.72 174.528 
M 373.57037 240.782222 
L 330.951111 225.450667 
M 216.32 228.736 
L 176.64 218.88 
M 216.32 228.736 
L 242.773333 209.024 
M 216.32 228.736 
L 242.773333 238.592 
M 216.32 228.736 
L 194.275556 241.877333 
M 216.32 228.736 
L 211.911111 205.738667 
M 163.413333 189.312 
L 176.64 218.88 
M 163.413333 189.312 
L 189.866667 169.6 
M 163.413333 189.312 
L 150.186667 169.6 
M 163.413333 189.312 
L 145.777778 205.738667 
M 163.413333 189.312 
L 194.275556 192.597333 
M 355.934815 267.064889 
L 414.72 307.584 
M 355.934815 267.064889 
L 322.133333 268.16 
M 355.934815 267.064889 
L 330.951111 225.450667 
M 355.934815 267.064889 
L 373.57037 240.782222 
L 373.57037 240.782222 
" style="fill:none;stroke:#000000;stroke-linecap:square;stroke-width:1.5;"/>
   </g>
   <g id="matplotlib.axis_1">
    <g id="xtick_1">
     <g id="line2d_2">
      <defs>
       <path d="M 0 0 
L 0 3.5 
" id="mf19b708903" style="stroke:#000000;stroke-width:0.8;"/>
      </defs>
      <g>
       <use style="stroke:#000000;stroke-width:0.8;" x="93.312" xlink:href="#mf19b708903" y="307.584"/>
      </g>
     </g>
     <g id="text_1">
      <!-- −0.4 -->
      <defs>
       <path d="M 10.59375 35.5 
L 73.1875 35.5 
L 73.1875 27.203125 
L 10.59375 27.203125 
z
" id="DejaVuSans-8722"/>
       <path d="M 31.78125 66.40625 
Q 24.171875 66.40625 20.328125 58.90625 
Q 16.5 51.421875 16.5 36.375 
Q 16.5 21.390625 20.328125 13.890625 
Q 24.171875 6.390625 31.78125 6.390625 
Q 39.453125 6.390625 43.28125 13.890625 
Q 47.125 21.390625 47.125 36.375 
Q 47.125 51.421875 43.28125 58.90625 
Q 39.453125 66.40625 31.78125 66.40625 
z
M 31.78125 74.21875 
Q 44.046875 74.21875 50.515625 64.515625 
Q 56.984375 54.828125 56.984375 36.375 
Q 56.984375 17.96875 50.515625 8.265625 
Q 44.046875 -1.421875 31.78125 -1.421875 
Q 19.53125 -1.421875 13.0625 8.265625 
Q 6.59375 17.96875 6.59375 36.375 
Q 6.59375 54.828125 13.0625 64.515625 
Q 19.53125 74.21875 31.78125 74.21875 
z
" id="DejaVuSans-48"/>
       <path d="M 10.6875 12.40625 
L 21 12.40625 
L 21 0 
L 10.6875 0 
z
" id="DejaVuSans-46"/>
       <path d="M 37.796875 64.3125 
L 12.890625 25.390625 
L 37.796875 25.390625 
z
M 35.203125 72.90625 
L 47.609375 72.90625 
L 47.609375 25.390625 
L 58.015625 25.390625 
L 58.015625 17.1875 
L 47.609375 17.1875 
L 47.609375 0 
L 37.796875 0 
L 37.796875 17.1875 
L 4.890625 17.1875 
L 4.890625 26.703125 
z
" id="DejaVuSans-52"/>
      </defs>
      <g transform="translate(81.170594 322.182437)scale(0.1 -0.1)">
       <use xlink:href="#DejaVuSans-8722"/>
       <use x="83.789062" xlink:href="#DejaVuSans-48"/>
       <use x="147.412109" xlink:href="#DejaVuSans-46"/>
       <use x="179.199219" xlink:href="#DejaVuSans-52"/>
      </g>
     </g>
    </g>
    <g id="xtick_2">
     <g id="line2d_3">
      <g>
       <use style="stroke:#000000;stroke-width:0.8;" x="164.736" xlink:href="#mf19b708903" y="307.584"/>
      </g>
     </g>
     <g id="text_2">
      <!-- −0.2 -->
      <defs>
       <path d="M 19.1875 8.296875 
L 53.609375 8.296875 
L 53.609375 0 
L 7.328125 0 
L 7.328125 8.296875 
Q 12.9375 14.109375 22.625 23.890625 
Q 32.328125 33.6875 34.8125 36.53125 
Q 39.546875 41.84375 41.421875 45.53125 
Q 43.3125 49.21875 43.3125 52.78125 
Q 43.3125 58.59375 39.234375 62.25 
Q 35.15625 65.921875 28.609375 65.921875 
Q 23.96875 65.921875 18.8125 64.3125 
Q 13.671875 62.703125 7.8125 59.421875 
L 7.8125 69.390625 
Q 13.765625 71.78125 18.9375 73 
Q 24.125 74.21875 28.421875 74.21875 
Q 39.75 74.21875 46.484375 68.546875 
Q 53.21875 62.890625 53.21875 53.421875 
Q 53.21875 48.921875 51.53125 44.890625 
Q 49.859375 40.875 45.40625 35.40625 
Q 44.1875 33.984375 37.640625 27.21875 
Q 31.109375 20.453125 19.1875 8.296875 
z
" id="DejaVuSans-50"/>
      </defs>
      <g transform="translate(152.594594 322.182437)scale(0.1 -0.1)">
       <use xlink:href="#DejaVuSans-8722"/>
       <use x="83.789062" xlink:href="#DejaVuSans-48"/>
       <use x="147.412109" xlink:href="#DejaVuSans-46"/>
       <use x="179.199219" xlink:href="#DejaVuSans-50"/>
      </g>
     </g>
    </g>
    <g id="xtick_3">
     <g id="line2d_4">
      <g>
       <use style="stroke:#000000;stroke-width:0.8;" x="236.16" xlink:href="#mf19b708903" y="307.584"/>
      </g>
     </g>
     <g id="text_3">
      <!-- 0.0 -->
      <g transform="translate(228.208438 322.182437)scale(0.1 -0.1)">
       <use xlink:href="#DejaVuSans-48"/>
       <use x="63.623047" xlink:href="#DejaVuSans-46"/>
       <use x="95.410156" xlink:href="#DejaVuSans-48"/>
      </g>
     </g>
    </g>
    <g id="xtick_4">
     <g id="line2d_5">
      <g>
       <use style="stroke:#000000;stroke-width:0.8;" x="307.584" xlink:href="#mf19b708903" y="307.584"/>
      </g>
     </g>
     <g id="text_4">
      <!-- 0.2 -->
      <g transform="translate(299.632437 322.182437)scale(0.1 -0.1)">
       <use xlink:href="#DejaVuSans-48"/>
       <use x="63.623047" xlink:href="#DejaVuSans-46"/>
       <use x="95.410156" xlink:href="#DejaVuSans-50"/>
      </g>
     </g>
    </g>
    <g id="xtick_5">
     <g id="line2d_6">
      <g>
       <use style="stroke:#000000;stroke-width:0.8;" x="379.008" xlink:href="#mf19b708903" y="307.584"/>
      </g>
     </g>
     <g id="text_5">
      <!-- 0.4 -->
      <g transform="translate(371.056437 322.182437)scale(0.1 -0.1)">
       <use xlink:href="#DejaVuSans-48"/>
       <use x="63.623047" xlink:href="#DejaVuSans-46"/>
       <use x="95.410156" xlink:href="#DejaVuSans-52"/>
      </g>
     </g>
    </g>
   </g>
   <g id="matplotlib.axis_2">
    <g id="ytick_1">
     <g id="line2d_7">
      <defs>
       <path d="M 0 0 
L -3.5 0 
" id="m01ee97de51" style="stroke:#000000;stroke-width:0.8;"/>
      </defs>
      <g>
       <use style="stroke:#000000;stroke-width:0.8;" x="57.6" xlink:href="#m01ee97de51" y="280.9728"/>
      </g>
     </g>
     <g id="text_6">
      <!-- −0.4 -->
      <g transform="translate(26.317187 284.772019)scale(0.1 -0.1)">
       <use xlink:href="#DejaVuSans-8722"/>
       <use x="83.789062" xlink:href="#DejaVuSans-48"/>
       <use x="147.412109" xlink:href="#DejaVuSans-46"/>
       <use x="179.199219" xlink:href="#DejaVuSans-52"/>
      </g>
     </g>
    </g>
    <g id="ytick_2">
     <g id="line2d_8">
      <g>
       <use style="stroke:#000000;stroke-width:0.8;" x="57.6" xlink:href="#m01ee97de51" y="227.7504"/>
      </g>
     </g>
     <g id="text_7">
      <!-- −0.2 -->
      <g transform="translate(26.317187 231.549619)scale(0.1 -0.1)">
       <use xlink:href="#DejaVuSans-8722"/>
       <use x="83.789062" xlink:href="#DejaVuSans-48"/>
       <use x="147.412109" xlink:href="#DejaVuSans-46"/>
       <use x="179.199219" xlink:href="#DejaVuSans-50"/>
      </g>
     </g>
    </g>
    <g id="ytick_3">
     <g id="line2d_9">
      <g>
       <use style="stroke:#000000;stroke-width:0.8;" x="57.6" xlink:href="#m01ee97de51" y="174.528"/>
      </g>
     </g>
     <g id="text_8">
      <!-- 0.0 -->
      <g transform="translate(34.696875 178.327219)scale(0.1 -0.1)">
       <use xlink:href="#DejaVuSans-48"/>
       <use x="63.623047" xlink:href="#DejaVuSans-46"/>
       <use x="95.410156" xlink:href="#DejaVuSans-48"/>
      </g>
     </g>
    </g>
    <g id="ytick_4">
     <g id="line2d_10">
      <g>
       <use style="stroke:#000000;stroke-width:0.8;" x="57.6" xlink:href="#m01ee97de51" y="121.3056"/>
      </g>
     </g>
     <g id="text_9">
      <!-- 0.2 -->
      <g transform="translate(34.696875 125.104819)scale(0.1 -0.1)">
       <use xlink:href="#DejaVuSans-48"/>
       <use x="63.623047" xlink:href="#DejaVuSans-46"/>
       <use x="95.410156" xlink:href="#DejaVuSans-50"/>
      </g>
     </g>
    </g>
    <g id="ytick_5">
     <g id="line2d_11">
      <g>
       <use style="stroke:#000000;stroke-width:0.8;" x="57.6" xlink:href="#m01ee97de51" y="68.0832"/>
      </g>
     </g>
     <g id="text_10">
      <!-- 0.4 -->
      <g transform="translate(34.696875 71.882419)scale(0.1 -0.1)">
       <use xlink:href="#DejaVuSans-48"/>
       <use x="63.623047" xlink:href="#DejaVuSans-46"/>
       <use x="95.410156" xlink:href="#DejaVuSans-52"/>
      </g>
     </g>
    </g>
   </g>
   <g id="line2d_12">
    <defs>
     <path d="M 0 1.5 
C 0.397805 1.5 0.77937 1.341951 1.06066 1.06066 
C 1.341951 0.77937 1.5 0.397805 1.5 0 
C 1.5 -0.397805 1.341951 -0.77937 1.06066 -1.06066 
C 0.77937 -1.341951 0.397805 -1.5 0 -1.5 
C -0.397805 -1.5 -0.77937 -1.341951 -1.06066 -1.06066 
C -1.341951 -0.77937 -1.5 -0.397805 -1.5 0 
C -1.5 0.397805 -1.341951 0.77937 -1.06066 1.06066 
C -0.77937 1.341951 -0.397805 1.5 0 1.5 
z
" id="m9ba99503d2" style="stroke:#000000;"/>
    </defs>
    <g clip-path="url(#p1f9122787b)">
     <use style="stroke:#000000;" x="57.6" xlink:href="#m9ba99503d2" y="41.472"/>
     <use style="stroke:#000000;" x="57.6" xlink:href="#m9ba99503d2" y="307.584"/>
     <use style="stroke:#000000;" x="414.72" xlink:href="#m9ba99503d2" y="307.584"/>
     <use style="stroke:#000000;" x="414.72" xlink:href="#m9ba99503d2" y="41.472"/>
     <use style="stroke:#000000;" x="176.64" xlink:href="#m9ba99503d2" y="130.176"/>
     <use style="stroke:#000000;" x="295.68" xlink:href="#m9ba99503d2" y="218.88"/>
     <use style="stroke:#000000;" x="216.32" xlink:href="#m9ba99503d2" y="71.04"/>
     <use style="stroke:#000000;" x="97.28" xlink:href="#m9ba99503d2" y="159.744"/>
     <use style="stroke:#000000;" x="176.64" xlink:href="#m9ba99503d2" y="218.88"/>
     <use style="stroke:#000000;" x="295.68" xlink:href="#m9ba99503d2" y="130.176"/>
     <use style="stroke:#000000;" x="256" xlink:href="#m9ba99503d2" y="278.016"/>
     <use style="stroke:#000000;" x="375.04" xlink:href="#m9ba99503d2" y="189.312"/>
     <use style="stroke:#000000;" x="110.506667" xlink:href="#m9ba99503d2" y="228.736"/>
     <use style="stroke:#000000;" x="163.413333" xlink:href="#m9ba99503d2" y="268.16"/>
     <use style="stroke:#000000;" x="308.906667" xlink:href="#m9ba99503d2" y="80.896"/>
     <use style="stroke:#000000;" x="414.72" xlink:href="#m9ba99503d2" y="174.528"/>
     <use style="stroke:#000000;" x="110.506667" xlink:href="#m9ba99503d2" y="110.464"/>
     <use style="stroke:#000000;" x="256" xlink:href="#m9ba99503d2" y="189.312"/>
     <use style="stroke:#000000;" x="150.186667" xlink:href="#m9ba99503d2" y="80.896"/>
     <use style="stroke:#000000;" x="216.32" xlink:href="#m9ba99503d2" y="159.744"/>
     <use style="stroke:#000000;" x="322.133333" xlink:href="#m9ba99503d2" y="268.16"/>
     <use style="stroke:#000000;" x="361.813333" xlink:href="#m9ba99503d2" y="120.32"/>
     <use style="stroke:#000000;" x="242.773333" xlink:href="#m9ba99503d2" y="209.024"/>
     <use style="stroke:#000000;" x="242.773333" xlink:href="#m9ba99503d2" y="238.592"/>
     <use style="stroke:#000000;" x="282.453333" xlink:href="#m9ba99503d2" y="179.456"/>
     <use style="stroke:#000000;" x="229.546667" xlink:href="#m9ba99503d2" y="140.032"/>
     <use style="stroke:#000000;" x="189.866667" xlink:href="#m9ba99503d2" y="169.6"/>
     <use style="stroke:#000000;" x="322.133333" xlink:href="#m9ba99503d2" y="179.456"/>
     <use style="stroke:#000000;" x="229.546667" xlink:href="#m9ba99503d2" y="110.464"/>
     <use style="stroke:#000000;" x="150.186667" xlink:href="#m9ba99503d2" y="169.6"/>
     <use style="stroke:#000000;" x="216.32" xlink:href="#m9ba99503d2" y="189.312"/>
     <use style="stroke:#000000;" x="256" xlink:href="#m9ba99503d2" y="159.744"/>
     <use style="stroke:#000000;" x="286.862222" xlink:href="#m9ba99503d2" y="241.877333"/>
     <use style="stroke:#000000;" x="185.457778" xlink:href="#m9ba99503d2" y="107.178667"/>
     <use style="stroke:#000000;" x="145.777778" xlink:href="#m9ba99503d2" y="136.746667"/>
     <use style="stroke:#000000;" x="330.951111" xlink:href="#m9ba99503d2" y="225.450667"/>
     <use style="stroke:#000000;" x="145.777778" xlink:href="#m9ba99503d2" y="107.178667"/>
     <use style="stroke:#000000;" x="145.777778" xlink:href="#m9ba99503d2" y="205.738667"/>
     <use style="stroke:#000000;" x="194.275556" xlink:href="#m9ba99503d2" y="241.877333"/>
     <use style="stroke:#000000;" x="150.186667" xlink:href="#m9ba99503d2" y="238.592"/>
     <use style="stroke:#000000;" x="211.911111" xlink:href="#m9ba99503d2" y="126.890667"/>
     <use style="stroke:#000000;" x="300.088889" xlink:href="#m9ba99503d2" y="192.597333"/>
     <use style="stroke:#000000;" x="278.044444" xlink:href="#m9ba99503d2" y="107.178667"/>
     <use style="stroke:#000000;" x="326.542222" xlink:href="#m9ba99503d2" y="143.317333"/>
     <use style="stroke:#000000;" x="229.546667" xlink:href="#m9ba99503d2" y="169.6"/>
     <use style="stroke:#000000;" x="242.773333" xlink:href="#m9ba99503d2" y="179.456"/>
     <use style="stroke:#000000;" x="322.133333" xlink:href="#m9ba99503d2" y="110.464"/>
     <use style="stroke:#000000;" x="251.591111" xlink:href="#m9ba99503d2" y="126.890667"/>
     <use style="stroke:#000000;" x="300.088889" xlink:href="#m9ba99503d2" y="163.029333"/>
     <use style="stroke:#000000;" x="194.275556" xlink:href="#m9ba99503d2" y="192.597333"/>
     <use style="stroke:#000000;" x="211.911111" xlink:href="#m9ba99503d2" y="205.738667"/>
     <use style="stroke:#000000;" x="260.408889" xlink:href="#m9ba99503d2" y="143.317333"/>
     <use style="stroke:#000000;" x="373.57037" xlink:href="#m9ba99503d2" y="240.782222"/>
     <use style="stroke:#000000;" x="216.32" xlink:href="#m9ba99503d2" y="228.736"/>
     <use style="stroke:#000000;" x="163.413333" xlink:href="#m9ba99503d2" y="189.312"/>
     <use style="stroke:#000000;" x="355.934815" xlink:href="#m9ba99503d2" y="267.064889"/>
    </g>
   </g>
   <g id="patch_3">
    <path d="M 57.6 307.584 
L 57.6 41.472 
" style="fill:none;stroke:#000000;stroke-linecap:square;stroke-linejoin:miter;stroke-width:0.8;"/>
   </g>
   <g id="patch_4">
    <path d="M 414.72 307.584 
L 414.72 41.472 
" style="fill:none;stroke:#000000;stroke-linecap:square;stroke-linejoin:miter;stroke-width:0.8;"/>
   </g>
   <g id="patch_5">
    <path d="M 57.6 307.584 
L 414.72 307.584 
" style="fill:none;stroke:#000000;stroke-linecap:square;stroke-linejoin:miter;stroke-width:0.8;"/>
   </g>
   <g id="patch_6">
    <path d="M 57.6 41.472 
L 414.72 41.472 
" style="fill:none;stroke:#000000;stroke-linecap:square;stroke-linejoin:miter;stroke-width:0.8;"/>
   </g>
  </g>
 </g>
 <defs>
  <clipPath id="p1f9122787b">
   <rect height="266.112" width="357.12" x="57.6" y="41.472"/>
  </clipPath>
 </defs>
</svg>
